<svg height="512pt" viewBox="0 0 512 512" width="512pt" xmlns="http://www.w3.org/2000/svg"><path fill="#1681ed" d="m39.195312 209.949219 69.464844 69.46875c2.542969 2.542969 3.941406 5.921875 3.941406 9.515625v68.582031c0 4.140625 3.359376 7.5 7.5 7.5 4.140626 0 7.5-3.359375 7.5-7.5v-68.582031c0-7.601563-2.960937-14.746094-8.335937-20.121094l-74.769531-74.769531c-2.929688-2.929688-7.675782-2.929688-10.605469 0l-15.136719 15.132812c-1.378906 1.378907-3.753906.375-3.753906-1.554687v-75.628906c0-2.695313 2.191406-4.886719 4.886719-4.886719h75.628906c1.960937 0 2.933594 2.375 1.554687 3.753906 0 0-15.121093 15.125-15.132812 15.136719-2.894531 2.894531-2.894531 7.714844 0 10.605468l90.859375 90.859376c5 5 7.753906 11.648437 7.753906 18.71875v229.851562h-52.949219v-108.515625c0-4.140625-3.359374-7.5-7.5-7.5-4.140624 0-7.5 3.359375-7.5 7.5v116.011719c0 4.144531 3.359376 7.5 7.5 7.5h67.949219c4.140625 0 7.5-3.355469 7.5-7.5v-237.347656c0-11.078126-4.316406-21.492188-12.148437-29.328126l-85.554688-85.554687s9.816406-9.820313 9.832032-9.832031c10.625-10.628906 2.8125-29.363282-12.164063-29.363282h-75.628906c-10.964844 0-19.886719 8.921876-19.886719 19.890626v75.628906c0 14.855468 18.6875 22.835937 29.363281 12.160156zm0 0"/><path fill="#1681ed" d="m495.632812 306.703125c-.769531.316406-1.710937.222656-2.390624-.457031 0 0-15.109376-15.113282-15.132813-15.136719-3.019531-3.019531-8.105469-2.859375-10.929687.34375l-21.691407 24.597656c-2.742187 3.105469-2.445312 7.84375.660157 10.585938 3.109374 2.738281 7.847656 2.441406 10.585937-.664063l16.414063-18.609375s9.480468 9.480469 9.488281 9.488281c10.628906 10.628907 29.363281 2.816407 29.363281-12.160156v-75.628906c0-10.964844-8.921875-19.886719-19.886719-19.886719 0 0-75.550781 0-75.628906 0-15 0-22.769531 18.753907-12.164063 29.359375l9.832032 9.832032-85.554688 85.554687c-7.835937 7.835937-12.148437 18.25-12.148437 29.328125v140.277344c0 4.144531 3.359375 7.5 7.5 7.5h67.949219c4.140624 0 7.5-3.355469 7.5-7.5v-107.523438c0-3.597656 1.398437-6.976562 3.941406-9.515625.109375-.109375.21875-.226562.320312-.34375l33.371094-37.832031c2.738281-3.105469 2.441406-7.847656-.664062-10.585938-3.105469-2.738281-7.847657-2.441406-10.585938.664063l-33.226562 37.671875c-5.261719 5.351562-8.15625 12.421875-8.15625 19.941406v100.023438h-52.949219v-132.777344c0-7.070312 2.753906-13.71875 7.753906-18.722656 0 0 90.78125-90.78125 90.859375-90.855469 2.894531-2.894531 2.890625-7.714844 0-10.605469 0 0-15.007812-15.007812-15.136719-15.136718-1.300781-1.300782-.484375-3.753907 1.554688-3.753907h75.628906c2.695313 0 4.886719 2.191407 4.886719 4.886719v75.625c.003906.96875-.59375 1.695312-1.363282 2.015625zm0 0"/><path fill="#1681ed" d="m222.023438 511.027344h67.949218c4.144532 0 7.5-3.355469 7.5-7.5v-414.941406h13.90625c14.992188 0 22.769532-18.75 12.160156-29.359376 0 0-53.453124-53.453124-53.476562-53.480468-7.667969-7.664063-20.46875-7.65625-28.125 0 0 0-53.476562 53.476562-53.476562 53.476562-10.625 10.625-2.8125 29.363282 12.160156 29.363282h13.902344v414.941406c0 4.144531 3.359374 7.5 7.5 7.5zm-21.402344-437.441406c-1.863282 0-2.96875-2.34375-1.554688-3.753907 0 0 53.390625-53.390625 53.476563-53.476562 1.890625-1.894531 5.019531-1.894531 6.914062 0 0 0 53.40625 53.40625 53.476563 53.476562 1.320312 1.316407.441406 3.753907-1.554688 3.753907h-21.40625c-4.140625 0-7.5 3.359374-7.5 7.5v414.941406h-52.949218v-414.941406c0-4.140626-3.355469-7.5-7.5-7.5 0 0-21.347657 0-21.402344 0zm0 0"/></svg>